/* XPM */
static char * bat_on_1_xpm[] = {
"18 18 3 1",
" 	c None",
".	c #FFFFFF",
"+	c #FF005B",
"                  ",
"                  ",
"                  ",
"       ....       ",
"     ........     ",
"     .      .     ",
"     .  .   .     ",
"     . ...  .     ",
"     .  .   .     ",
"     .      .     ",
"     .  .   .     ",
"     . ...  .     ",
"     .++.+++.     ",
"     .++++++.     ",
"     ........     ",
"                  ",
"                  ",
"                  "};
