/* XPM */
static char * cpu_8_xpm[] = {
"18 18 3 1",
" 	c None",
".	c #FF005B",
"+	c #FFFFFF",
"                  ",
"                  ",
"     . . . . .    ",
"     + + + + +    ",
"   .+++++++++++.  ",
"     +.......+    ",
"   .++.......++.  ",
"     +.......+    ",
"   .++.......++.  ",
"     +.......+    ",
"   .++.......++.  ",
"     +.......+    ",
"   .+++++++++++.  ",
"     + + + + +    ",
"     . . . . .    ",
"                  ",
"                  ",
"                  "};
