/* XPM */
static char * cpu_0_xpm[] = {
"18 18 3 1",
" 	c None",
".	c #fbf1c7",
"+	c #83a598",
"                  ",
"                  ",
"     . . . . .    ",
"     . . . . .    ",
"   .............  ",
"     .+++++++.    ",
"   ...+++++++...  ",
"     .+++++++.    ",
"   ...+++++++...  ",
"     .+++++++.    ",
"   ...+++++++...  ",
"     .+++++++.    ",
"   .............  ",
"     . . . . .    ",
"     . . . . .    ",
"                  ",
"                  ",
"                  "};
