/* XPM */
static char * layout_wide_xpm[] = {
"18 18 2 1",
" 	c None",
".	c #FFFFFF",
"                  ",
"                  ",
"   ...........    ",
"  .           .   ",
"  .           .   ",
"  .           .   ",
"  .           .   ",
"  .           .   ",
"  .............   ",
"  .     .     .   ",
"  .     .     .   ",
"  .............   ",
"  .           .   ",
"  .           .   ",
"   ...........    ",
"                  ",
"                  ",
"                  "};
