/* XPM */
static char * layout_grid_xpm[] = {
"18 18 2 1",
" 	c None",
".	c #FFFFFF",
"                  ",
"                  ",
"   ...........    ",
"  .   .   .   .   ",
"  .   .   .   .   ",
"  .   .   .....   ",
"  .........   .   ",
"  .   .   .   .   ",
"  .   .   .....   ",
"  .   .   .   .   ",
"  .........   .   ",
"  .   .   .....   ",
"  .   .   .   .   ",
"  .   .   .   .   ",
"   ...........    ",
"                  ",
"                  ",
"                  "};
