/* XPM */
static char * mem_5_xpm[] = {
"18 18 3 1",
" 	c None",
".	c #FFFFFF",
"+	c #048AC7",
"                  ",
"                  ",
"                  ",
"     ........     ",
"   ...      ...   ",
"   ...      ...   ",
"     .      .     ",
"     .      .     ",
"   ...++++++...   ",
"   ...++++++...   ",
"     .++++++.     ",
"     .++++++.     ",
"   ...++++++...   ",
"   ...++++++...   ",
"     ........     ",
"                  ",
"                  ",
"                  "};
