/* XPM */
static char * mem_8_xpm[] = {
"18 18 3 1",
" 	c None",
".	c #fbf1c7",
"+	c #fb4934",
"                  ",
"                  ",
"                  ",
"     ........     ",
"   ...      ...   ",
"   ...++++++...   ",
"     .++++++.     ",
"     .++++++.     ",
"   ...++++++...   ",
"   ...++++++...   ",
"     .++++++.     ",
"     .++++++.     ",
"   ...++++++...   ",
"   ...++++++...   ",
"     ........     ",
"                  ",
"                  ",
"                  "};
