/* XPM */
static char * mem_0_xpm[] = {
"18 18 2 1",
" 	c None",
".	c #fbf1c7",
"                  ",
"                  ",
"                  ",
"     ........     ",
"   ...      ...   ",
"   ...      ...   ",
"     .      .     ",
"     .      .     ",
"   ...      ...   ",
"   ...      ...   ",
"     .      .     ",
"     .      .     ",
"   ...      ...   ",
"   ...      ...   ",
"     ........     ",
"                  ",
"                  ",
"                  "};
