/* XPM */
static char * net_8_xpm[] = {
"18 18 2 1",
" 	c None",
".	c #FFFFFF",
"                  ",
"                  ",
"                  ",
"              ..  ",
"              ..  ",
"              ..  ",
"           .. ..  ",
"           .. ..  ",
"           .. ..  ",
"        .. .. ..  ",
"        .. .. ..  ",
"        .. .. ..  ",
"     .. .. .. ..  ",
"     .. .. .. ..  ",
"  .. .. .. .. ..  ",
"                  ",
"                  ",
"                  "};
