/* XPM */
static char * net_3_xpm[] = {
"18 18 2 1",
" 	c None",
".	c #FFFFFF",
"                  ",
"                  ",
"                  ",
"                  ",
"                  ",
"                  ",
"                  ",
"                  ",
"                  ",
"           ..     ",
"           ..     ",
"           ..     ",
"        .. ..     ",
"        .. ..     ",
"     .. .. ..     ",
"                  ",
"                  ",
"                  "};
