/* XPM */
static char * vol_4_xpm[] = {
"18 18 2 1",
" 	c None",
".	c #FFFFFF",
"                  ",
"                  ",
"                  ",
"                  ",
"         .        ",
"        ..        ",
"       ...   .    ",
"   ....... .  .   ",
"   .......  . .   ",
"   .......  . .   ",
"   ....... .  .   ",
"       ...   .    ",
"        ..        ",
"         .        ",
"                  ",
"                  ",
"                  ",
"                  "};
