/* XPM */
static char * vol_6_xpm[] = {
"18 18 2 1",
" 	c None",
".	c #FFFFFF",
"                  ",
"                  ",
"                  ",
"                  ",
"        .    .    ",
"       ..     .   ",
"      ...   .  .  ",
"  ....... .  . .  ",
"  .......  . . .  ",
"  .......  . . .  ",
"  ....... .  . .  ",
"      ...   .  .  ",
"       ..     .   ",
"        .    .    ",
"                  ",
"                  ",
"                  ",
"                  "};
